{
    "asset" : {
        "generator" : "Khronos glTF Blender I/O v1.2.20",
        "version" : "2.0"
    },
    "scene" : 0,
    "scenes" : [
        {
            "name" : "Scene",
            "nodes" : [
                0,
                1,
                2,
                3,
                4,
                5,
                6
            ]
        }
    ],
    "nodes" : [
        {
            "mesh" : 0,
            "rotation" : [
                0,
                -0.7071067690849304,
                0,
                -0.7071067690849304
            ],
            "name" : "Canopy_Truncated_Square",
            "translation" : [
                0,
                -0.05000007152557373,
                0
            ]
        },
        {
            "scale" : [
                45.885154724121094,
                45.885154724121094,
                45.885162353515625
            ],
            "rotation" : [
                0.16907575726509094,
                0.7558803558349609,
                -0.27217137813568115,
                0.570947527885437
            ],
            "name" : "BG Lamp",
            "translation" : [
                1.0657825469970703,
                6.077121734619141,
                -11.303069114685059
            ]
        },
        {
            "scale" : [
                0.567302942276001,
                1,
                1
            ],
            "mesh" : 1,
            "rotation" : [
                0,
                -1,
                0,
                -1.6292068494294654e-07
            ],
            "name" : "Canopy_Square",
            "translation" : [
                0.0001536025811219588,
                1.8443975448608398,
                0
            ]
        },
        {
            "mesh" : 2,
            "rotation" : [
                0,
                -1,
                0,
                -1.6292068494294654e-07
            ],
            "name" : "Canopy_Rectangle",
            "translation" : [
                0,
                1.8228029012680054,
                0.012657423503696918
            ]
        },
        {
            "scale" : [
                0.01791941188275814,
                1.0786964893341064,
                0.01791941188275814
            ],
            "mesh" : 3,
            "name" : "Pole",
            "translation" : [
                -0.00013624006533063948,
                1.157554268836975,
                2.709416366997175e-05
            ]
        },
        {
            "scale" : [
                0.25,
                0.025000005960464478,
                0.25
            ],
            "mesh" : 4,
            "name" : "Base_Center",
            "translation" : [
                0,
                0.025000013411045074,
                0
            ]
        },
        {
            "scale" : [
                45.885154724121094,
                45.885154724121094,
                45.885162353515625
            ],
            "rotation" : [
                0.16907575726509094,
                0.7558803558349609,
                -0.27217137813568115,
                0.570947527885437
            ],
            "name" : "FG Lamp",
            "translation" : [
                10.006477355957031,
                4.471075057983398,
                3.2083702087402344
            ]
        }
    ],
    "materials" : [
        {
            "name" : "checker",
            "pbrMetallicRoughness" : {}
        },
        {
            "name" : "checker.002",
            "pbrMetallicRoughness" : {}
        },
        {
            "name" : "checker.001",
            "pbrMetallicRoughness" : {}
        }
    ],
    "meshes" : [
        {
            "name" : "CUBezierCurve.021",
            "primitives" : [
                {
                    "material" : 0,
                    "indices" : 3,
                    "attributes" : {
                        "TEXCOORD_0" : 0,
                        "NORMAL" : 1,
                        "POSITION" : 2
                    }
                }
            ]
        },
        {
            "name" : "CUBezierCurve.007",
            "primitives" : [
                {
                    "material" : 1,
                    "indices" : 7,
                    "attributes" : {
                        "TEXCOORD_0" : 4,
                        "NORMAL" : 5,
                        "POSITION" : 6
                    }
                }
            ]
        },
        {
            "name" : "CUBezierCurve.011",
            "primitives" : [
                {
                    "material" : 2,
                    "indices" : 11,
                    "attributes" : {
                        "TEXCOORD_0" : 8,
                        "NORMAL" : 9,
                        "POSITION" : 10
                    }
                }
            ]
        },
        {
            "name" : "Cylinder.001",
            "primitives" : [
                {
                    "indices" : 15,
                    "attributes" : {
                        "TEXCOORD_0" : 12,
                        "NORMAL" : 13,
                        "POSITION" : 14
                    }
                }
            ]
        },
        {
            "name" : "Cylinder",
            "primitives" : [
                {
                    "indices" : 18,
                    "attributes" : {
                        "NORMAL" : 16,
                        "POSITION" : 17
                    }
                }
            ]
        }
    ],
    "accessors" : [
        {
            "type" : "VEC2",
            "componentType" : 5126,
            "bufferView" : 0,
            "count" : 592
        },
        {
            "type" : "VEC3",
            "componentType" : 5126,
            "bufferView" : 1,
            "count" : 592
        },
        {
            "type" : "VEC3",
            "bufferView" : 2,
            "max" : [
                1.0000009536743164,
                2.3050618171691895,
                1.0000038146972656
            ],
            "min" : [
                -0.9999996423721313,
                1.8102048635482788,
                -0.9999985694885254
            ],
            "componentType" : 5126,
            "count" : 592
        },
        {
            "type" : "SCALAR",
            "componentType" : 5123,
            "bufferView" : 3,
            "count" : 1140
        },
        {
            "type" : "VEC2",
            "componentType" : 5126,
            "bufferView" : 4,
            "count" : 352
        },
        {
            "type" : "VEC3",
            "componentType" : 5126,
            "bufferView" : 5,
            "count" : 352
        },
        {
            "type" : "VEC3",
            "bufferView" : 6,
            "max" : [
                1.7627270221710205,
                0.41066426038742065,
                1.000000238418579
            ],
            "min" : [
                -1.7627270221710205,
                -0.08419275283813477,
                -1.0000003576278687
            ],
            "componentType" : 5126,
            "count" : 352
        },
        {
            "type" : "SCALAR",
            "componentType" : 5123,
            "bufferView" : 7,
            "count" : 660
        },
        {
            "type" : "VEC2",
            "componentType" : 5126,
            "bufferView" : 8,
            "count" : 496
        },
        {
            "type" : "VEC3",
            "componentType" : 5126,
            "bufferView" : 9,
            "count" : 496
        },
        {
            "type" : "VEC3",
            "bufferView" : 10,
            "max" : [
                1.7627266645431519,
                0.4322589039802551,
                1.0126577615737915
            ],
            "min" : [
                -1.7627266645431519,
                -0.0625980794429779,
                -0.9873431324958801
            ],
            "componentType" : 5126,
            "count" : 496
        },
        {
            "type" : "SCALAR",
            "componentType" : 5123,
            "bufferView" : 11,
            "count" : 948
        },
        {
            "type" : "VEC2",
            "componentType" : 5126,
            "bufferView" : 12,
            "count" : 384
        },
        {
            "type" : "VEC3",
            "componentType" : 5126,
            "bufferView" : 13,
            "count" : 384
        },
        {
            "type" : "VEC3",
            "bufferView" : 14,
            "max" : [
                1.0076029300689697,
                0.9704638719558716,
                0.9984880089759827
            ],
            "min" : [
                -0.992397129535675,
                -1.0295366048812866,
                -1.001512050628662
            ],
            "componentType" : 5126,
            "count" : 384
        },
        {
            "type" : "SCALAR",
            "componentType" : 5123,
            "bufferView" : 15,
            "count" : 744
        },
        {
            "type" : "VEC3",
            "componentType" : 5126,
            "bufferView" : 16,
            "count" : 192
        },
        {
            "type" : "VEC3",
            "bufferView" : 17,
            "max" : [
                0.9999999403953552,
                1,
                1.0000003576278687
            ],
            "min" : [
                -1,
                -1,
                -0.9999997019767761
            ],
            "componentType" : 5126,
            "count" : 192
        },
        {
            "type" : "SCALAR",
            "componentType" : 5123,
            "bufferView" : 18,
            "count" : 372
        }
    ],
    "bufferViews" : [
        {
            "byteOffset" : 0,
            "byteLength" : 4736,
            "buffer" : 0
        },
        {
            "byteOffset" : 4736,
            "byteLength" : 7104,
            "buffer" : 0
        },
        {
            "byteOffset" : 11840,
            "byteLength" : 7104,
            "buffer" : 0
        },
        {
            "byteOffset" : 18944,
            "byteLength" : 2280,
            "buffer" : 0
        },
        {
            "byteOffset" : 21224,
            "byteLength" : 2816,
            "buffer" : 0
        },
        {
            "byteOffset" : 24040,
            "byteLength" : 4224,
            "buffer" : 0
        },
        {
            "byteOffset" : 28264,
            "byteLength" : 4224,
            "buffer" : 0
        },
        {
            "byteOffset" : 32488,
            "byteLength" : 1320,
            "buffer" : 0
        },
        {
            "byteOffset" : 33808,
            "byteLength" : 3968,
            "buffer" : 0
        },
        {
            "byteOffset" : 37776,
            "byteLength" : 5952,
            "buffer" : 0
        },
        {
            "byteOffset" : 43728,
            "byteLength" : 5952,
            "buffer" : 0
        },
        {
            "byteOffset" : 49680,
            "byteLength" : 1896,
            "buffer" : 0
        },
        {
            "byteOffset" : 51576,
            "byteLength" : 3072,
            "buffer" : 0
        },
        {
            "byteOffset" : 54648,
            "byteLength" : 4608,
            "buffer" : 0
        },
        {
            "byteOffset" : 59256,
            "byteLength" : 4608,
            "buffer" : 0
        },
        {
            "byteOffset" : 63864,
            "byteLength" : 1488,
            "buffer" : 0
        },
        {
            "byteOffset" : 65352,
            "byteLength" : 2304,
            "buffer" : 0
        },
        {
            "byteOffset" : 67656,
            "byteLength" : 2304,
            "buffer" : 0
        },
        {
            "byteOffset" : 69960,
            "byteLength" : 744,
            "buffer" : 0
        }
    ],
    "buffers" : [
        {
            "byteLength" : 70704,
            "uri" : "data:application/octet-stream;base64,"
        }
    ]
}
