{
  "accessors": [
    {
      "bufferView": 2,
      "componentType": 5126,
      "count": 3288,
      "max": [
        -3.08182954788208,
        2.41129207611084,
        3.2817978858947754
      ],
      "min": [
        -7.081989765167236,
        -2.0001683235168457,
        0.13617703318595886
      ],
      "type": "VEC3"
    },
    {
      "bufferView": 2,
      "byteOffset": 39456,
      "componentType": 5126,
      "count": 3288,
      "max": [
        1.0,
        1.0,
        1.0
      ],
      "min": [
        -1.0,
        -1.0,
        -1.0
      ],
      "type": "VEC3"
    },
    {
      "bufferView": 3,
      "componentType": 5126,
      "count": 3288,
      "max": [
        0.9999999403953552,
        0.9999999403953552,
        0.999984860420227,
        1.0
      ],
      "min": [
        -0.9999999403953552,
        -1.0,
        -0.9999986290931702,
        -1.0
      ],
      "type": "VEC4"
    },
    {
      "bufferView": 1,
      "componentType": 5126,
      "count": 3288,
      "max": [
        0.9976801872253418,
        0.9808757305145264
      ],
      "min": [
        0.002319865860044956,
        0.002319865860044956
      ],
      "type": "VEC2"
    },
    {
      "bufferView": 0,
      "componentType": 5125,
      "count": 15495,
      "type": "SCALAR"
    },
    {
      "bufferView": 2,
      "byteOffset": 78912,
      "componentType": 5126,
      "count": 217,
      "max": [
        -3.032682180404663,
        2.049227476119995,
        3.253582239151001
      ],
      "min": [
        -7.131136894226074,
        -2.049227237701416,
        2.690918207168579
      ],
      "type": "VEC3"
    },
    {
      "bufferView": 2,
      "byteOffset": 81516,
      "componentType": 5126,
      "count": 217,
      "max": [
        1.0,
        1.0,
        1.0
      ],
      "min": [
        -1.0,
        -1.0,
        -0.963362991809845
      ],
      "type": "VEC3"
    },
    {
      "bufferView": 3,
      "byteOffset": 52608,
      "componentType": 5126,
      "count": 217,
      "max": [
        0.9990324974060059,
        0.9974656701087952,
        0.9594576358795166,
        1.0
      ],
      "min": [
        -0.9981088042259216,
        -0.9999989867210388,
        -0.9594707489013672,
        1.0
      ],
      "type": "VEC4"
    },
    {
      "bufferView": 1,
      "byteOffset": 26304,
      "componentType": 5126,
      "count": 217,
      "max": [
        0.9891692399978638,
        0.9888945817947388
      ],
      "min": [
        0.005879878997802734,
        0.007109969854354858
      ],
      "type": "VEC2"
    },
    {
      "bufferView": 0,
      "byteOffset": 61980,
      "componentType": 5125,
      "count": 882,
      "type": "SCALAR"
    },
    {
      "bufferView": 2,
      "byteOffset": 84120,
      "componentType": 5126,
      "count": 80,
      "max": [
        -4.540578842163086,
        2.765352487564087,
        0.13422593474388123
      ],
      "min": [
        -5.6232404708862305,
        1.6826905012130737,
        0.08232574164867401
      ],
      "type": "VEC3"
    },
    {
      "bufferView": 2,
      "byteOffset": 85080,
      "componentType": 5126,
      "count": 80,
      "max": [
        0.8393075466156006,
        0.8393075466156006,
        0.989577054977417
      ],
      "min": [
        -0.8393075466156006,
        -0.8393075466156006,
        -1.0
      ],
      "type": "VEC3"
    },
    {
      "bufferView": 3,
      "byteOffset": 56080,
      "componentType": 5126,
      "count": 80,
      "max": [
        1.0,
        0.996659517288208,
        0.8773072361946106,
        1.0
      ],
      "min": [
        -0.7495443224906921,
        -0.999998152256012,
        -0.8765147924423218,
        1.0
      ],
      "type": "VEC4"
    },
    {
      "bufferView": 1,
      "byteOffset": 28040,
      "componentType": 5126,
      "count": 80,
      "max": [
        0.5538353323936462,
        0.9996180534362793
      ],
      "min": [
        0.00038202758878469467,
        0.00038202758878469467
      ],
      "type": "VEC2"
    },
    {
      "bufferView": 0,
      "byteOffset": 65508,
      "componentType": 5125,
      "count": 324,
      "type": "SCALAR"
    },
    {
      "bufferView": 2,
      "byteOffset": 86040,
      "componentType": 5126,
      "count": 6548,
      "max": [
        -4.578064918518066,
        2.72477388381958,
        0.15533071756362915
      ],
      "min": [
        -5.63166618347168,
        1.7238696813583374,
        0.009644567966461182
      ],
      "type": "VEC3"
    },
    {
      "bufferView": 2,
      "byteOffset": 164616,
      "componentType": 5126,
      "count": 6548,
      "max": [
        1.0,
        1.0,
        1.0
      ],
      "min": [
        -1.0,
        -1.0,
        -1.0
      ],
      "type": "VEC3"
    },
    {
      "bufferView": 3,
      "byteOffset": 57360,
      "componentType": 5126,
      "count": 6548,
      "max": [
        0.9999997615814209,
        0.9989081025123596,
        0.9981272220611572,
        1.0
      ],
      "min": [
        -0.9955850839614868,
        -0.9995423555374146,
        -0.9965516924858093,
        1.0
      ],
      "type": "VEC4"
    },
    {
      "bufferView": 1,
      "byteOffset": 28680,
      "componentType": 5126,
      "count": 6548,
      "max": [
        0.9432235360145569,
        0.9980140924453735
      ],
      "min": [
        0.0,
        0.0
      ],
      "type": "VEC2"
    },
    {
      "bufferView": 0,
      "byteOffset": 66804,
      "componentType": 5125,
      "count": 33240,
      "type": "SCALAR"
    },
    {
      "bufferView": 2,
      "byteOffset": 243192,
      "componentType": 5126,
      "count": 2160,
      "max": [
        -4.599722862243652,
        2.716732978820801,
        0.0583842396736145
      ],
      "min": [
        -5.6177520751953125,
        1.7313127517700195,
        0.00011807680130004883
      ],
      "type": "VEC3"
    },
    {
      "bufferView": 2,
      "byteOffset": 269112,
      "componentType": 5126,
      "count": 2160,
      "max": [
        0.999998927116394,
        0.9993348121643066,
        0.9960078001022339
      ],
      "min": [
        -0.9999816417694092,
        -0.9993329048156738,
        -0.9959142208099365
      ],
      "type": "VEC3"
    },
    {
      "bufferView": 3,
      "byteOffset": 162128,
      "componentType": 5126,
      "count": 2160,
      "max": [
        0.9938225150108337,
        0.9999910593032837,
        0.7588250041007996,
        1.0
      ],
      "min": [
        -0.4263682961463928,
        -0.999510645866394,
        -0.9936826229095459,
        1.0
      ],
      "type": "VEC4"
    },
    {
      "bufferView": 1,
      "byteOffset": 81064,
      "componentType": 5126,
      "count": 2160,
      "max": [
        0.9856711030006409,
        0.9988136887550354
      ],
      "min": [
        0.0011862415121868253,
        0.0011862415121868253
      ],
      "type": "VEC2"
    },
    {
      "bufferView": 0,
      "byteOffset": 199764,
      "componentType": 5125,
      "count": 10080,
      "type": "SCALAR"
    }
  ],
  "asset": {
    "extras": {
      "author": "k3v1nc0 (https://sketchfab.com/k3v1nc0)",
      "license": "CC-BY-4.0 (http://creativecommons.org/licenses/by/4.0/)",
      "source": "https://sketchfab.com/3d-models/floating-parasol-sunshade-patio-umbrella-280a65bca20b425e96617b0dd78cce21",
      "title": "Floating Parasol Sunshade Patio Umbrella"
    },
    "generator": "Sketchfab-12.56.0",
    "version": "2.0"
  },
  "bufferViews": [
    {
      "buffer": 0,
      "byteLength": 240084,
      "name": "floatBufferViews",
      "target": 34963
    },
    {
      "buffer": 0,
      "byteLength": 98344,
      "byteOffset": 240084,
      "byteStride": 8,
      "name": "floatBufferViews",
      "target": 34962
    },
    {
      "buffer": 0,
      "byteLength": 295032,
      "byteOffset": 338428,
      "byteStride": 12,
      "name": "floatBufferViews",
      "target": 34962
    },
    {
      "buffer": 0,
      "byteLength": 196688,
      "byteOffset": 633460,
      "byteStride": 16,
      "name": "floatBufferViews",
      "target": 34962
    }
  ],
  "buffers": [
    {
      "byteLength": 830148,
      "uri": "scene.bin"
    }
  ],
  "images": [
    {
      "uri": "textures/Parasol_frame_baseColor.png"
    },
    {
      "uri": "textures/Parasol_frame_metallicRoughness.png"
    },
    {
      "uri": "textures/Parasol_frame_emissive.png"
    },
    {
      "uri": "textures/Parasol_frame_normal.png"
    },
    {
      "uri": "textures/Parasol_fabric_baseColor.png"
    },
    {
      "uri": "textures/Parasol_fabric_metallicRoughness.png"
    },
    {
      "uri": "textures/Parasol_fabric_emissive.png"
    },
    {
      "uri": "textures/Parasol_fabric_normal.png"
    },
    {
      "uri": "textures/Parasol_stone_baseColor.png"
    },
    {
      "uri": "textures/Parasol_stone_metallicRoughness.png"
    },
    {
      "uri": "textures/Parasol_stone_emissive.png"
    },
    {
      "uri": "textures/Parasol_stone_normal.png"
    },
    {
      "uri": "textures/Parasol_metaal_baseColor.png"
    },
    {
      "uri": "textures/Parasol_metaal_metallicRoughness.png"
    },
    {
      "uri": "textures/Parasol_metaal_emissive.png"
    },
    {
      "uri": "textures/Parasol_metaal_normal.png"
    },
    {
      "uri": "textures/Parasol_wheels_baseColor.png"
    },
    {
      "uri": "textures/Parasol_wheels_metallicRoughness.png"
    },
    {
      "uri": "textures/Parasol_wheels_emissive.png"
    },
    {
      "uri": "textures/Parasol_wheels_normal.png"
    }
  ],
  "materials": [
    {
      "doubleSided": true,
      "emissiveFactor": [
        1.0,
        1.0,
        1.0
      ],
      "emissiveTexture": {
        "index": 2
      },
      "name": "Parasol_frame",
      "normalTexture": {
        "index": 3
      },
      "pbrMetallicRoughness": {
        "baseColorTexture": {
          "index": 0
        },
        "metallicRoughnessTexture": {
          "index": 1
        }
      }
    },
    {
      "doubleSided": true,
      "emissiveFactor": [
        1.0,
        1.0,
        1.0
      ],
      "emissiveTexture": {
        "index": 6
      },
      "name": "Parasol_fabric",
      "normalTexture": {
        "index": 7
      },
      "pbrMetallicRoughness": {
        "baseColorTexture": {
          "index": 4
        },
        "metallicRoughnessTexture": {
          "index": 5
        }
      }
    },
    {
      "doubleSided": true,
      "emissiveFactor": [
        1.0,
        1.0,
        1.0
      ],
      "emissiveTexture": {
        "index": 10
      },
      "name": "Parasol_stone",
      "normalTexture": {
        "index": 11
      },
      "pbrMetallicRoughness": {
        "baseColorTexture": {
          "index": 8
        },
        "metallicRoughnessTexture": {
          "index": 9
        }
      }
    },
    {
      "doubleSided": true,
      "emissiveFactor": [
        1.0,
        1.0,
        1.0
      ],
      "emissiveTexture": {
        "index": 14
      },
      "name": "Parasol_metaal",
      "normalTexture": {
        "index": 15
      },
      "pbrMetallicRoughness": {
        "baseColorTexture": {
          "index": 12
        },
        "metallicRoughnessTexture": {
          "index": 13
        }
      }
    },
    {
      "doubleSided": true,
      "emissiveFactor": [
        1.0,
        1.0,
        1.0
      ],
      "emissiveTexture": {
        "index": 18
      },
      "name": "Parasol_wheels",
      "normalTexture": {
        "index": 19
      },
      "pbrMetallicRoughness": {
        "baseColorTexture": {
          "index": 16
        },
        "metallicRoughnessTexture": {
          "index": 17
        }
      }
    }
  ],
  "meshes": [
    {
      "name": "Parasol_Parasol_frame_0",
      "primitives": [
        {
          "attributes": {
            "NORMAL": 1,
            "POSITION": 0,
            "TANGENT": 2,
            "TEXCOORD_0": 3
          },
          "indices": 4,
          "material": 0,
          "mode": 4
        }
      ]
    },
    {
      "name": "Parasol_Parasol_fabric_0",
      "primitives": [
        {
          "attributes": {
            "NORMAL": 6,
            "POSITION": 5,
            "TANGENT": 7,
            "TEXCOORD_0": 8
          },
          "indices": 9,
          "material": 1,
          "mode": 4
        }
      ]
    },
    {
      "name": "Parasol_Parasol_stone_0",
      "primitives": [
        {
          "attributes": {
            "NORMAL": 11,
            "POSITION": 10,
            "TANGENT": 12,
            "TEXCOORD_0": 13
          },
          "indices": 14,
          "material": 2,
          "mode": 4
        }
      ]
    },
    {
      "name": "Parasol_Parasol_metaal_0",
      "primitives": [
        {
          "attributes": {
            "NORMAL": 16,
            "POSITION": 15,
            "TANGENT": 17,
            "TEXCOORD_0": 18
          },
          "indices": 19,
          "material": 3,
          "mode": 4
        }
      ]
    },
    {
      "name": "Parasol_Parasol_wheels_0",
      "primitives": [
        {
          "attributes": {
            "NORMAL": 21,
            "POSITION": 20,
            "TANGENT": 22,
            "TEXCOORD_0": 23
          },
          "indices": 24,
          "material": 4,
          "mode": 4
        }
      ]
    }
  ],
  "nodes": [
    {
      "children": [
        1
      ],
      "matrix": [
        0.80825275182724,
        0.0,
        0.0,
        0.0,
        0.0,
        1.7946816295904888e-16,
        -0.80825275182724,
        0.0,
        0.0,
        0.80825275182724,
        1.7946816295904888e-16,
        0.0,
        0.0,
        -3.4310275509596977e-07,
        -3.764402123351905e-09,
        1.0
      ],
      "name": "Sketchfab_model"
    },
    {
      "children": [
        2
      ],
      "matrix": [
        0.009999999776482582,
        0.0,
        0.0,
        0.0,
        0.0,
        0.0,
        0.009999999776482582,
        0.0,
        0.0,
        -0.009999999776482582,
        0.0,
        0.0,
        0.0,
        0.0,
        0.0,
        1.0
      ],
      "name": "Parasol.fbx"
    },
    {
      "children": [
        3
      ],
      "name": "RootNode"
    },
    {
      "children": [
        4,
        5,
        6,
        7,
        8
      ],
      "matrix": [
        100.0,
        0.0,
        0.0,
        0.0,
        0.0,
        -1.629206793918314e-05,
        -99.99999999999868,
        0.0,
        0.0,
        99.99999999999868,
        -1.629206793918314e-05,
        0.0,
        0.0,
        0.0,
        0.0,
        1.0
      ],
      "name": "Parasol"
    },
    {
      "mesh": 0,
      "name": "Parasol_Parasol_frame_0"
    },
    {
      "mesh": 1,
      "name": "Parasol_Parasol_fabric_0"
    },
    {
      "mesh": 2,
      "name": "Parasol_Parasol_stone_0"
    },
    {
      "mesh": 3,
      "name": "Parasol_Parasol_metaal_0"
    },
    {
      "mesh": 4,
      "name": "Parasol_Parasol_wheels_0"
    }
  ],
  "samplers": [
    {
      "magFilter": 9729,
      "minFilter": 9987,
      "wrapS": 10497,
      "wrapT": 10497
    }
  ],
  "scene": 0,
  "scenes": [
    {
      "name": "Sketchfab_Scene",
      "nodes": [
        0
      ]
    }
  ],
  "textures": [
    {
      "sampler": 0,
      "source": 0
    },
    {
      "sampler": 0,
      "source": 1
    },
    {
      "sampler": 0,
      "source": 2
    },
    {
      "sampler": 0,
      "source": 3
    },
    {
      "sampler": 0,
      "source": 4
    },
    {
      "sampler": 0,
      "source": 5
    },
    {
      "sampler": 0,
      "source": 6
    },
    {
      "sampler": 0,
      "source": 7
    },
    {
      "sampler": 0,
      "source": 8
    },
    {
      "sampler": 0,
      "source": 9
    },
    {
      "sampler": 0,
      "source": 10
    },
    {
      "sampler": 0,
      "source": 11
    },
    {
      "sampler": 0,
      "source": 12
    },
    {
      "sampler": 0,
      "source": 13
    },
    {
      "sampler": 0,
      "source": 14
    },
    {
      "sampler": 0,
      "source": 15
    },
    {
      "sampler": 0,
      "source": 16
    },
    {
      "sampler": 0,
      "source": 17
    },
    {
      "sampler": 0,
      "source": 18
    },
    {
      "sampler": 0,
      "source": 19
    }
  ]
}
